<svg width="344" height="63" viewBox="0 0 344 63" fill="none" xmlns="http://www.w3.org/2000/svg">
<path d="M4.6 60.81L0.37 1.5L40.06 0.239997L39.79 6.27L20.8 8.52L18.46 27.15L37.63 26.97L38.08 35.07L17.74 33.54L15.31 53.61L40.15 50.73L39.79 60L4.6 60.81ZM72.0522 62.16C67.7322 62.16 63.8022 61.65 60.2622 60.63C56.7822 59.61 54.1422 58.35 52.3422 56.85C51.8622 54.45 51.5022 52.29 51.2622 50.37C51.0822 48.39 50.9922 46.53 50.9922 44.79C50.9922 39.45 51.8322 34.56 53.5122 30.12C55.1922 25.62 57.3222 21.78 59.9022 18.6C62.4822 15.36 65.1222 12.99 67.8222 11.49L83.3922 21.66C75.9522 25.68 70.0422 30.48 65.6622 36.06C61.2822 41.64 59.0922 47.55 59.0922 53.79C61.6122 54.15 64.2222 54.33 66.9222 54.33C69.5622 54.33 72.2322 54.12 74.9322 53.7C77.6922 53.22 80.4522 52.44 83.2122 51.36L85.9122 60.09C83.5722 60.87 81.2322 61.41 78.8922 61.71C76.5522 62.01 74.2722 62.16 72.0522 62.16ZM111.829 62.16C107.569 62.16 103.939 61.65 100.939 60.63C97.9987 59.67 95.5987 58.44 93.7387 56.94C93.2587 54.54 92.8987 52.23 92.6587 50.01C92.4787 47.73 92.3887 45.54 92.3887 43.44C92.3887 39.24 92.9887 35.34 94.1887 31.74C95.4487 28.14 96.9787 24.96 98.7787 22.2C100.639 19.38 102.529 17.07 104.449 15.27C106.369 13.41 107.989 12.15 109.309 11.49C112.009 12.87 114.679 14.55 117.319 16.53C119.959 18.51 122.359 20.82 124.519 23.46C126.739 26.1 128.509 29.07 129.829 32.37C131.149 35.67 131.809 39.36 131.809 43.44C131.809 47.58 131.239 51.03 130.099 53.79C128.959 56.55 126.949 58.62 124.069 60C121.189 61.44 117.109 62.16 111.829 62.16ZM106.969 54.33C109.249 54.33 111.529 54.18 113.809 53.88C116.149 53.52 118.189 53.04 119.929 52.44C120.409 50.52 120.769 48.6 121.009 46.68C121.249 44.76 121.369 42.87 121.369 41.01C121.369 35.31 120.169 30.09 117.769 25.35C114.409 27.09 111.439 29.52 108.859 32.64C106.279 35.7 104.239 39.09 102.739 42.81C101.299 46.47 100.579 50.13 100.579 53.79C102.499 54.15 104.629 54.33 106.969 54.33ZM182.126 61.35L152.966 13.11H152.246L152.516 60L143.516 60.45L145.946 1.5L167.726 0.149998L183.476 45.06H184.196L185.096 1.05L194.096 0.599998L190.226 60L182.126 61.35ZM222.571 62.16C218.311 62.16 214.681 61.65 211.681 60.63C208.741 59.67 206.341 58.44 204.481 56.94C204.001 54.54 203.641 52.23 203.401 50.01C203.221 47.73 203.131 45.54 203.131 43.44C203.131 39.24 203.731 35.34 204.931 31.74C206.191 28.14 207.721 24.96 209.521 22.2C211.381 19.38 213.271 17.07 215.191 15.27C217.111 13.41 218.731 12.15 220.051 11.49C222.751 12.87 225.421 14.55 228.061 16.53C230.701 18.51 233.101 20.82 235.261 23.46C237.481 26.1 239.251 29.07 240.571 32.37C241.891 35.67 242.551 39.36 242.551 43.44C242.551 47.58 241.981 51.03 240.841 53.79C239.701 56.55 237.691 58.62 234.811 60C231.931 61.44 227.851 62.16 222.571 62.16ZM217.711 54.33C219.991 54.33 222.271 54.18 224.551 53.88C226.891 53.52 228.931 53.04 230.671 52.44C231.151 50.52 231.511 48.6 231.751 46.68C231.991 44.76 232.111 42.87 232.111 41.01C232.111 35.31 230.911 30.09 228.511 25.35C225.151 27.09 222.181 29.52 219.601 32.64C217.021 35.7 214.981 39.09 213.481 42.81C212.041 46.47 211.321 50.13 211.321 53.79C213.241 54.15 215.371 54.33 217.711 54.33ZM269.739 61.35L249.759 16.8L269.019 13.83L274.959 48.3H275.679L287.289 14.1L294.579 16.08L277.029 60.18L269.739 61.35ZM309.394 62.07C309.034 62.07 308.644 62.07 308.224 62.07C307.864 62.07 307.504 62.04 307.144 61.98C305.104 60.6 303.454 58.56 302.194 55.86C300.994 53.1 300.394 50.25 300.394 47.31C300.394 44.85 300.964 42.81 302.104 41.19C303.244 39.57 305.284 38.37 308.224 37.59C311.224 36.75 315.424 36.33 320.824 36.33C322.144 36.33 323.554 36.39 325.054 36.51C326.554 36.57 328.144 36.72 329.824 36.96L329.644 34.98C329.404 32.52 328.234 30.6 326.134 29.22C324.094 27.84 321.664 27.15 318.844 27.15C317.284 27.15 315.634 27.39 313.894 27.87C312.214 28.35 310.534 29.1 308.854 30.12L304.894 17.07C306.874 16.23 309.394 15.51 312.454 14.91C315.574 14.25 318.784 13.92 322.084 13.92C326.464 13.92 330.274 14.55 333.514 15.81C336.814 17.07 339.364 19.05 341.164 21.75C343.024 24.39 343.954 27.9 343.954 32.28C343.954 32.82 343.924 33.45 343.864 34.17C343.864 34.89 343.834 35.4 343.774 35.7L341.254 60.54L332.344 61.35L330.994 48.3H330.274C328.294 52.5 325.504 55.86 321.904 58.38C318.364 60.84 314.194 62.07 309.394 62.07ZM316.144 51.99C317.464 51.75 319.024 51.33 320.824 50.73C322.684 50.07 324.454 48.99 326.134 47.49C327.874 45.93 329.224 43.68 330.184 40.74C329.404 40.74 328.624 40.74 327.844 40.74C327.064 40.68 326.254 40.65 325.414 40.65C323.554 40.65 321.874 40.68 320.374 40.74C318.874 40.8 317.314 40.98 315.694 41.28C315.454 41.82 315.184 42.48 314.884 43.26C314.584 44.04 314.434 45.03 314.434 46.23C314.434 47.25 314.614 48.36 314.974 49.56C315.334 50.7 315.724 51.51 316.144 51.99Z" fill="white"/>
</svg>
