<svg width="378" height="140" viewBox="0 0 378 140" fill="none" xmlns="http://www.w3.org/2000/svg">
<path d="M22.6 100.81L18.37 41.5L58.06 40.24L57.79 46.27L38.8 48.52L36.46 67.15L55.63 66.97L56.08 75.07L35.74 73.54L33.31 93.61L58.15 90.73L57.79 100L22.6 100.81ZM90.0522 102.16C85.7322 102.16 81.8022 101.65 78.2622 100.63C74.7822 99.61 72.1422 98.35 70.3422 96.85C69.8622 94.45 69.5022 92.29 69.2622 90.37C69.0822 88.39 68.9922 86.53 68.9922 84.79C68.9922 79.45 69.8322 74.56 71.5122 70.12C73.1922 65.62 75.3222 61.78 77.9022 58.6C80.4822 55.36 83.1222 52.99 85.8222 51.49L101.392 61.66C93.9522 65.68 88.0422 70.48 83.6622 76.06C79.2822 81.64 77.0922 87.55 77.0922 93.79C79.6122 94.15 82.2222 94.33 84.9222 94.33C87.5622 94.33 90.2322 94.12 92.9322 93.7C95.6922 93.22 98.4522 92.44 101.212 91.36L103.912 100.09C101.572 100.87 99.2322 101.41 96.8922 101.71C94.5522 102.01 92.2722 102.16 90.0522 102.16ZM129.829 102.16C125.569 102.16 121.939 101.65 118.939 100.63C115.999 99.67 113.599 98.44 111.739 96.94C111.259 94.54 110.899 92.23 110.659 90.01C110.479 87.73 110.389 85.54 110.389 83.44C110.389 79.24 110.989 75.34 112.189 71.74C113.449 68.14 114.979 64.96 116.779 62.2C118.639 59.38 120.529 57.07 122.449 55.27C124.369 53.41 125.989 52.15 127.309 51.49C130.009 52.87 132.679 54.55 135.319 56.53C137.959 58.51 140.359 60.82 142.519 63.46C144.739 66.1 146.509 69.07 147.829 72.37C149.149 75.67 149.809 79.36 149.809 83.44C149.809 87.58 149.239 91.03 148.099 93.79C146.959 96.55 144.949 98.62 142.069 100C139.189 101.44 135.109 102.16 129.829 102.16ZM124.969 94.33C127.249 94.33 129.529 94.18 131.809 93.88C134.149 93.52 136.189 93.04 137.929 92.44C138.409 90.52 138.769 88.6 139.009 86.68C139.249 84.76 139.369 82.87 139.369 81.01C139.369 75.31 138.169 70.09 135.769 65.35C132.409 67.09 129.439 69.52 126.859 72.64C124.279 75.7 122.239 79.09 120.739 82.81C119.299 86.47 118.579 90.13 118.579 93.79C120.499 94.15 122.629 94.33 124.969 94.33ZM200.126 101.35L170.966 53.11H170.246L170.516 100L161.516 100.45L163.946 41.5L185.726 40.15L201.476 85.06H202.196L203.096 41.05L212.096 40.6L208.226 100L200.126 101.35ZM240.571 102.16C236.311 102.16 232.681 101.65 229.681 100.63C226.741 99.67 224.341 98.44 222.481 96.94C222.001 94.54 221.641 92.23 221.401 90.01C221.221 87.73 221.131 85.54 221.131 83.44C221.131 79.24 221.731 75.34 222.931 71.74C224.191 68.14 225.721 64.96 227.521 62.2C229.381 59.38 231.271 57.07 233.191 55.27C235.111 53.41 236.731 52.15 238.051 51.49C240.751 52.87 243.421 54.55 246.061 56.53C248.701 58.51 251.101 60.82 253.261 63.46C255.481 66.1 257.251 69.07 258.571 72.37C259.891 75.67 260.551 79.36 260.551 83.44C260.551 87.58 259.981 91.03 258.841 93.79C257.701 96.55 255.691 98.62 252.811 100C249.931 101.44 245.851 102.16 240.571 102.16ZM235.711 94.33C237.991 94.33 240.271 94.18 242.551 93.88C244.891 93.52 246.931 93.04 248.671 92.44C249.151 90.52 249.511 88.6 249.751 86.68C249.991 84.76 250.111 82.87 250.111 81.01C250.111 75.31 248.911 70.09 246.511 65.35C243.151 67.09 240.181 69.52 237.601 72.64C235.021 75.7 232.981 79.09 231.481 82.81C230.041 86.47 229.321 90.13 229.321 93.79C231.241 94.15 233.371 94.33 235.711 94.33ZM287.739 101.35L267.759 56.8L287.019 53.83L292.959 88.3H293.679L305.289 54.1L312.579 56.08L295.029 100.18L287.739 101.35ZM327.394 102.07C327.034 102.07 326.644 102.07 326.224 102.07C325.864 102.07 325.504 102.04 325.144 101.98C323.104 100.6 321.454 98.56 320.194 95.86C318.994 93.1 318.394 90.25 318.394 87.31C318.394 84.85 318.964 82.81 320.104 81.19C321.244 79.57 323.284 78.37 326.224 77.59C329.224 76.75 333.424 76.33 338.824 76.33C340.144 76.33 341.554 76.39 343.054 76.51C344.554 76.57 346.144 76.72 347.824 76.96L347.644 74.98C347.404 72.52 346.234 70.6 344.134 69.22C342.094 67.84 339.664 67.15 336.844 67.15C335.284 67.15 333.634 67.39 331.894 67.87C330.214 68.35 328.534 69.1 326.854 70.12L322.894 57.07C324.874 56.23 327.394 55.51 330.454 54.91C333.574 54.25 336.784 53.92 340.084 53.92C344.464 53.92 348.274 54.55 351.514 55.81C354.814 57.07 357.364 59.05 359.164 61.75C361.024 64.39 361.954 67.9 361.954 72.28C361.954 72.82 361.924 73.45 361.864 74.17C361.864 74.89 361.834 75.4 361.774 75.7L359.254 100.54L350.344 101.35L348.994 88.3H348.274C346.294 92.5 343.504 95.86 339.904 98.38C336.364 100.84 332.194 102.07 327.394 102.07ZM334.144 91.99C335.464 91.75 337.024 91.33 338.824 90.73C340.684 90.07 342.454 88.99 344.134 87.49C345.874 85.93 347.224 83.68 348.184 80.74C347.404 80.74 346.624 80.74 345.844 80.74C345.064 80.68 344.254 80.65 343.414 80.65C341.554 80.65 339.874 80.68 338.374 80.74C336.874 80.8 335.314 80.98 333.694 81.28C333.454 81.82 333.184 82.48 332.884 83.26C332.584 84.04 332.434 85.03 332.434 86.23C332.434 87.25 332.614 88.36 332.974 89.56C333.334 90.7 333.724 91.51 334.144 91.99Z" fill="black"/>
</svg>
